<?xml version="1.0" encoding="UTF-8"?>
<svg id="Calque_1" data-name="Calque 1" xmlns="http://www.w3.org/2000/svg" viewBox="0 0 598.47 320.68">
  <defs>
    <style>
      .cls-1, .cls-2, .cls-3 {
        stroke-width: 0px;
      }

      .cls-2 {
        fill: #e74928;
      }

      .cls-3 {
        fill: #095;
      }
    </style>
  </defs>
  <path class="cls-2" d="m289.72,194.04c3.15.04,5.51-.71,6.75-1.1,2.16-.69,4.2-1.71,6.13-3.03,6.22-4.29,10.63-10.24,14.41-16.65.84-1.43,2.77-6.49-1.54-8.98-2.39-1.38-5.78,1.5-7.73,3.11-1.23,1.02-3.93,2.7-5.13,3.76-.11-.12.48-4.52.51-6.81.03-2.68-.24-5.17-2.06-6.41-2.17-1.48-5.7-1.21-8.14.79-.88.71-1.62,1.67-2.17,2.65-1.11,1.99-2.04,4.06-3.06,6.1-.07-.13-2.77-8.99-6.7-10.77-2.05-.93-4.72-1.43-6.82-.44-3.6,1.69-5.08,6.96-4.83,11.06.38,6.24,1.57,12.71,5.61,18.26,1.73,2.38,3.79,5.32,7.68,7.04,3.04,1.34,5.92,1.4,7.1,1.42Z"/>
  <path class="cls-1" d="m380.58,158.28c0,48.73-38.51,88.49-86.77,90.46-.2-15.74-.57-33.3.73-37.42,2.82-5.79,15.89-11.24,24.79-17.91,14.28-10.7,12.42-25.31,9.07-41.65-2.28-11.13-6.57-22.65-9.13-29.32h-57.42c-2.57,6.67-6.86,18.18-9.13,29.32-3.34,16.34-5.21,30.95,9.07,41.65,8.91,6.67,21.98,12.11,24.79,17.91,1.3,4.12.93,21.72.74,37.46-48.75-1.43-87.83-41.41-87.83-90.5s40.53-90.54,90.54-90.54,90.54,40.53,90.54,90.54Z"/>
  <path class="cls-3" d="m284.83,193.39l10.96-.26s-1.88.49-1.71,3.7c0,0-.36,48.86-.11,51.89-3.21-.07-3.44.14-6.64.07-.07-5.15-.24-51.95-.24-51.95,0,0-.13-2.78-2.25-3.44Z"/>
</svg>