<?xml version="1.0" encoding="UTF-8"?>
<svg id="Calque_1" data-name="Calque 1" xmlns="http://www.w3.org/2000/svg" viewBox="0 0 598.47 320.68">
  <defs>
    <style>
      .cls-1 {
        fill: #1d1d1b;
        font-family: Heavitas, Heavitas;
        font-size: 70px;
      }

      .cls-2 {
        fill: #f299b1;
      }

      .cls-2, .cls-3, .cls-4, .cls-5, .cls-6 {
        stroke-width: 0px;
      }

      .cls-3 {
        fill: #e74928;
      }

      .cls-4 {
        fill: #03a65a;
      }

      .cls-5 {
        fill: #528dd9;
      }

      .cls-6 {
        fill: #f2b749;
      }
    </style>
  </defs>
  <path class="cls-4" d="m82.1,157.54c1.25-6.73,3.23-13.47,7.07-19.22,3.41-5.11,8.42-8.52,14.12-10.23,1.57-.47,2.96-.79,4.52-.79.82,0,1.04,0,1.89.29.28.1.67.34,1.09.81,2.15,2.41,5.67-1.14,3.54-3.54-2.46-2.76-6.37-2.82-9.74-2.23s-6.45,1.88-9.36,3.43c-7,3.74-11.54,10.46-14.44,17.65-1.63,4.02-2.72,8.23-3.51,12.49-.25,1.33.37,2.7,1.75,3.08,1.22.33,2.83-.41,3.08-1.75h0Z"/>
  <text class="cls-1" transform="translate(91.11 190.9)"><tspan x="0" y="0">SOMMELIO</tspan></text>
  <path class="cls-5" d="m509.86,176.42c-1.77,14.09-14.77,25.93-28.88,26.67-3.2.17-3.22,5.17,0,5,13.04-.68,25.17-9.08,30.75-20.85,1.64-3.45,2.66-7.03,3.13-10.82.17-1.34-1.27-2.5-2.5-2.5-1.49,0-2.33,1.15-2.5,2.5h0Z"/>
  <path class="cls-6" d="m342.66,132.4c10.57-.92,21.15-1.85,31.72-2.77,1.35-.12,2.5-1.06,2.5-2.5,0-1.26-1.15-2.62-2.5-2.5-10.57.92-21.15,1.85-31.72,2.77-1.35.12-2.5,1.06-2.5,2.5,0,1.26,1.15,2.62,2.5,2.5h0Z"/>
  <path class="cls-2" d="m209.44,203.24c11.65-.34,23.3-.69,34.94-1.03,3.21-.1,3.22-5.1,0-5-11.65.34-23.3.69-34.94,1.03-3.21.1-3.22,5.1,0,5h0Z"/>
  <path class="cls-3" d="m435.34,131.21c1.68.66,3.09.74,3.83.77,1.29.07,2.59-.06,3.89-.38,4.19-1.03,7.75-3.33,11.06-5.99.74-.6,1.34-1.49,1.76-2.36.64-1.32.55-2.75-.41-3.89-1.01-1.21-2.43-1.28-3.79-.69-1.16.51-2.22,1.29-3.36,1.85-.81.41-1.71.65-2.56.98-.05-.13-.09-.26-.13-.38.85-.8,1.81-1.53,2.55-2.43,1.2-1.43,1.34-3.3.5-4.49-.86-1.23-2.8-1.8-4.51-1.22-.61.2-1.2.57-1.7.98-1,.84-1.91,1.76-2.87,2.65-.01-.08-.03-.21-.04-.36-.49-3.96-.75-5.96-1.36-6.75-.79-1.02-2.23-1.71-3.55-1.61-2.27.17-4.12,2.7-4.82,4.94-1.06,3.41-1.72,7.11-.69,10.9.44,1.62.95,3.61,2.68,5.31,1.36,1.33,2.88,1.95,3.51,2.19Z"/>
</svg>