<?xml version="1.0" encoding="UTF-8"?>
<svg id="Calque_1" data-name="Calque 1" xmlns="http://www.w3.org/2000/svg" viewBox="0 0 598.47 320.68">
  <defs>
    <style>
      .cls-1 {
        fill: #1d1d1b;
        font-family: Heavitas, Heavitas;
        font-size: 70px;
      }

      .cls-2 {
        fill: #f299b1;
      }

      .cls-2, .cls-3, .cls-4, .cls-5, .cls-6, .cls-7, .cls-8 {
        stroke-width: 0px;
      }

      .cls-4 {
        fill: #e74928;
      }

      .cls-5 {
        fill: #03a65a;
      }

      .cls-6 {
        fill: #528dd9;
      }

      .cls-7 {
        fill: #f2b749;
      }

      .cls-8 {
        fill: #095;
      }
    </style>
  </defs>
  <g>
    <path class="cls-5" d="m83.69,247.04c1.25-6.73,3.23-13.47,7.07-19.22,3.41-5.11,8.42-8.52,14.12-10.23,1.57-.47,2.96-.79,4.52-.79.82,0,1.04,0,1.89.29.28.1.67.34,1.09.81,2.15,2.41,5.67-1.14,3.54-3.54-2.46-2.76-6.37-2.82-9.74-2.23s-6.45,1.88-9.36,3.43c-7,3.74-11.54,10.46-14.44,17.65-1.63,4.02-2.72,8.23-3.51,12.49-.25,1.33.37,2.7,1.75,3.08,1.22.33,2.83-.41,3.08-1.75h0Z"/>
    <text class="cls-1" transform="translate(92.7 280.39)"><tspan x="0" y="0">SOMMELIO</tspan></text>
    <path class="cls-6" d="m511.46,265.91c-1.77,14.09-14.77,25.93-28.88,26.67-3.2.17-3.22,5.17,0,5,13.04-.68,25.17-9.08,30.75-20.85,1.64-3.45,2.66-7.03,3.13-10.82.17-1.34-1.27-2.5-2.5-2.5-1.49,0-2.33,1.15-2.5,2.5h0Z"/>
    <path class="cls-7" d="m344.26,221.89c10.57-.92,21.15-1.85,31.72-2.77,1.35-.12,2.5-1.06,2.5-2.5,0-1.26-1.15-2.62-2.5-2.5-10.57.92-21.15,1.85-31.72,2.77-1.35.12-2.5,1.06-2.5,2.5,0,1.26,1.15,2.62,2.5,2.5h0Z"/>
    <path class="cls-2" d="m211.03,292.74c11.65-.34,23.3-.69,34.94-1.03,3.21-.1,3.22-5.1,0-5-11.65.34-23.3.69-34.94,1.03-3.21.1-3.22,5.1,0,5h0Z"/>
  </g>
  <g>
    <path class="cls-4" d="m297.28,135.69c2.94.03,5.14-.66,6.29-1.03,2.01-.65,3.91-1.59,5.71-2.82,5.8-3.99,9.91-9.54,13.43-15.52.78-1.34,2.58-6.05-1.44-8.37-2.23-1.29-5.39,1.4-7.2,2.9-1.15.95-3.66,2.52-4.78,3.5-.1-.11.45-4.22.47-6.35.03-2.5-.22-4.82-1.92-5.98-2.02-1.38-5.31-1.12-7.59.74-.82.66-1.51,1.56-2.03,2.47-1.03,1.86-1.9,3.78-2.85,5.69-.06-.12-2.58-8.38-6.25-10.04-1.91-.86-4.4-1.33-6.35-.41-3.36,1.57-4.73,6.49-4.5,10.31.35,5.81,1.47,11.84,5.23,17.02,1.61,2.22,3.53,4.96,7.16,6.56,2.84,1.25,5.52,1.31,6.62,1.32Z"/>
    <path class="cls-3" d="m381.96,102.36c0,45.42-35.89,82.47-80.87,84.31-.18-14.67-.53-31.03.68-34.88,2.63-5.4,14.81-10.47,23.11-16.69,13.31-9.97,11.58-23.59,8.45-38.81-2.12-10.38-6.12-21.11-8.51-27.32h-53.51c-2.39,6.22-6.39,16.95-8.51,27.32-3.11,15.23-4.85,28.84,8.45,38.81,8.3,6.22,20.48,11.29,23.11,16.69,1.21,3.84.86,20.24.69,34.91-45.43-1.34-81.86-38.59-81.86-84.35s37.78-84.38,84.38-84.38,84.38,37.78,84.38,84.38Z"/>
    <path class="cls-8" d="m292.72,135.09l10.21-.24s-1.75.46-1.59,3.45c0,0-.34,45.54-.11,48.36-2.99-.07-3.2.13-6.19.06-.07-4.8-.23-48.42-.23-48.42,0,0-.12-2.59-2.1-3.2Z"/>
  </g>
</svg>